# xmcd CD database file
#
# Track frame offsets:
#	182
#	17322
#	33822
#	48875
#	64172
#	83732
#	98495
#	115060
#	133155
#	150947
#	164437
#	181590
#	198530
#	216145
#	232632
#	250900
#	268945
#	286700
#	305785
#
# Disc length: 4293 seconds
#
# Revision: 3
# Processed by: cddbd v1.4PL0 Copyright (c) Steve Scherf et al.
# Submitted via: CDex 1.40Release
#
DISCID=1310c313,ec10c313
DTITLE=Various Artist - The Black Mix 2/98 CD1
DYEAR=1998
DGENRE=Rock
TTITLE0=2-4 Family - Stay
TTITLE1=Alex Prince Feat. Mazaya - How We Livin'
TTITLE2=Jay-Z Feat. Blackstreet - The City Is Mine
TTITLE3=Another Level - Freak Me (C&J Radio Edit)
TTITLE4=Lamar - Too Many Nights (The Funky Club)
TTITLE5=Lutricia McNeal - Stranded
TTITLE6=Lovestation - Teardrops
TTITLE7=Queen Pen - It's True
TTITLE8=DJ Jazzy Jeff and The Fresh Prince - Lovely Daze
TTITLE9=Sweetbox - Shout
TTITLE10=Down Low - Hit Me Right
TTITLE11=Jonestown - Sweet Thang
TTITLE12=Big Punisher Feat. Joe - Still Not A Player
TTITLE13=Bobby Brown - Feelin' Inside
TTITLE14=Next  - Too Close
TTITLE15=Mase Feat. Total - What You Want
TTITLE16=Destiny's Child - No No No (Part 1)
TTITLE17=Missy Elliot Feat. Da Brat - Sock It 2 Me
TTITLE18=Busta Rythmes - Dangerous
EXTD=YEAR: 1998 ID3G: 17
EXTT0=
EXTT1=
EXTT2=
EXTT3=
EXTT4=
EXTT5=
EXTT6=
EXTT7=
EXTT8=
EXTT9=
EXTT10=
EXTT11=
EXTT12=
EXTT13=
EXTT14=
EXTT15=
EXTT16=
EXTT17=
EXTT18=
PLAYORDER=
